<svg width="109" height="82" viewBox="0 0 109 82" fill="none" xmlns="http://www.w3.org/2000/svg">
<g clip-path="url(#clip0_49_51)">
<path d="M24.7728 81.5964V39.5724L11.712 27.6493L0 21.0328V74.1803C0 78.2837 3.33174 81.5964 7.43201 81.5964H24.7728Z" fill="#4285F4"/>
<path d="M84.2271 81.5964H101.568C105.68 81.5964 109 78.2713 109 74.1802V21.0332L95.7342 28.6116L84.2271 39.5724V81.5964Z" fill="#34A853"/>
<path d="M24.7728 39.5725L22.9956 23.1525L24.7728 7.43695L54.5 29.6849L84.2272 7.43695L86.2152 22.304L84.2272 39.5725L54.5 61.8204L24.7728 39.5725Z" fill="#EA4335"/>
<path d="M84.2271 7.43692V39.5724L109 21.0328V11.1448C109 1.97394 98.5086 -3.25409 91.1639 2.24586L84.2271 7.43692Z" fill="#FBBC04"/>
<path d="M0 21.0329L11.3935 29.56L24.7728 39.5725V7.437L17.836 2.24593C10.4785 -3.25444 0 1.97401 0 11.1444V21.0324V21.0329Z" fill="#C5221F"/>
</g>
<defs>
<clipPath id="clip0_49_51">
<rect width="109" height="82" fill="white"/>
</clipPath>
</defs>
</svg>
