<svg width="118" height="118" viewBox="0 0 118 118" fill="none" xmlns="http://www.w3.org/2000/svg">
<path d="M93.4167 14.75C96.0246 14.75 98.5258 15.786 100.37 17.6301C102.214 19.4742 103.25 21.9754 103.25 24.5833V93.4167C103.25 96.0246 102.214 98.5258 100.37 100.37C98.5258 102.214 96.0246 103.25 93.4167 103.25H24.5833C21.9754 103.25 19.4742 102.214 17.6301 100.37C15.786 98.5258 14.75 96.0246 14.75 93.4167V24.5833C14.75 21.9754 15.786 19.4742 17.6301 17.6301C19.4742 15.786 21.9754 14.75 24.5833 14.75H93.4167ZM90.9583 90.9583V64.9C90.9583 60.649 89.2696 56.5721 86.2637 53.5663C83.2578 50.5604 79.181 48.8717 74.93 48.8717C70.7508 48.8717 65.8833 51.4283 63.5233 55.2633V49.8058H49.8058V90.9583H63.5233V66.7192C63.5233 62.9333 66.5717 59.8358 70.3575 59.8358C72.1831 59.8358 73.9339 60.561 75.2248 61.8519C76.5156 63.1428 77.2408 64.8936 77.2408 66.7192V90.9583H90.9583ZM33.8267 42.0867C36.0174 42.0867 38.1183 41.2164 39.6674 39.6674C41.2164 38.1183 42.0867 36.0174 42.0867 33.8267C42.0867 29.2542 38.3992 25.5175 33.8267 25.5175C31.6229 25.5175 29.5095 26.3929 27.9512 27.9512C26.3929 29.5095 25.5175 31.6229 25.5175 33.8267C25.5175 38.3992 29.2542 42.0867 33.8267 42.0867ZM40.6608 90.9583V49.8058H27.0417V90.9583H40.6608Z" fill="#0077B7"/>
</svg>
