<svg width="97" height="97" viewBox="0 0 97 97" fill="none" xmlns="http://www.w3.org/2000/svg">
<g clip-path="url(#clip0_49_33)">
<path d="M74.2656 0H22.7344C10.1785 0 0 10.1785 0 22.7344V74.2656C0 86.8215 10.1785 97 22.7344 97H74.2656C86.8215 97 97 86.8215 97 74.2656V22.7344C97 10.1785 86.8215 0 74.2656 0Z" fill="url(#paint0_radial_49_33)"/>
<path d="M74.2656 0H22.7344C10.1785 0 0 10.1785 0 22.7344V74.2656C0 86.8215 10.1785 97 22.7344 97H74.2656C86.8215 97 97 86.8215 97 74.2656V22.7344C97 10.1785 86.8215 0 74.2656 0Z" fill="url(#paint1_radial_49_33)"/>
<path d="M48.5034 10.6094C38.2131 10.6094 36.9214 10.6545 32.88 10.8382C28.8461 11.0231 26.0926 11.6616 23.6835 12.5986C21.1911 13.5664 19.0772 14.8611 16.9712 16.9678C14.8634 19.0741 13.5686 21.1881 12.5979 23.6794C11.6582 26.0892 11.019 28.8439 10.8375 32.8758C10.6567 36.9176 10.6094 38.2097 10.6094 48.5004C10.6094 58.7911 10.6548 60.0786 10.8382 64.12C11.0239 68.1539 11.6624 70.9074 12.5986 73.3165C13.5671 75.8089 14.8618 77.9228 16.9686 80.0288C19.0741 82.1366 21.1881 83.4344 23.6786 84.4021C26.0896 85.3392 28.8435 85.9776 32.8766 86.1625C36.9184 86.3463 38.2089 86.3914 48.4989 86.3914C58.7903 86.3914 60.0779 86.3463 64.1193 86.1625C68.1531 85.9776 70.9097 85.3392 73.3206 84.4021C75.8119 83.4344 77.9228 82.1366 80.028 80.0288C82.1359 77.9228 83.4302 75.8089 84.4014 73.3176C85.3327 70.9074 85.9723 68.1531 86.1618 64.1208C86.3433 60.0794 86.3906 58.7911 86.3906 48.5004C86.3906 38.2097 86.3433 36.9184 86.1618 32.8766C85.9723 28.8427 85.3327 26.0896 84.4014 23.6805C83.4302 21.1881 82.1359 19.0741 80.028 16.9678C77.9206 14.8603 75.8127 13.5656 73.3184 12.599C70.9028 11.6616 68.1478 11.0228 64.114 10.8382C60.0722 10.6545 58.7854 10.6094 48.4917 10.6094H48.5034ZM45.1042 17.4376C46.1133 17.4361 47.239 17.4376 48.5034 17.4376C58.6206 17.4376 59.8194 17.474 63.8146 17.6555C67.509 17.8245 69.5141 18.4417 70.8498 18.9605C72.6181 19.647 73.8788 20.4681 75.2042 21.7947C76.5303 23.1209 77.3511 24.3838 78.0395 26.1521C78.5583 27.4859 79.1763 29.491 79.3445 33.1854C79.526 37.1798 79.5654 38.3794 79.5654 48.4917C79.5654 58.6039 79.526 59.8039 79.3445 63.798C79.1755 67.4923 78.5583 69.4975 78.0395 70.8316C77.353 72.6 76.5303 73.8591 75.2042 75.1845C73.878 76.5106 72.6189 77.3314 70.8498 78.0183C69.5157 78.5393 67.509 79.155 63.8146 79.324C59.8202 79.5055 58.6206 79.5449 48.5034 79.5449C38.3859 79.5449 37.1866 79.5055 33.1926 79.324C29.4982 79.1535 27.4931 78.5363 26.1563 78.0176C24.3883 77.3306 23.125 76.5099 21.7989 75.1837C20.4727 73.8575 19.652 72.5977 18.9635 70.8286C18.4448 69.4944 17.8268 67.4893 17.6585 63.7949C17.4771 59.8005 17.4407 58.6009 17.4407 48.4822C17.4407 38.3639 17.4771 37.1703 17.6585 33.1759C17.8275 29.4816 18.4448 27.4764 18.9635 26.1407C19.6505 24.3724 20.4727 23.1095 21.7992 21.7833C23.1254 20.4571 24.3883 19.6361 26.1567 18.948C27.4923 18.427 29.4982 17.8112 33.1926 17.6415C36.688 17.4835 38.0426 17.4361 45.1042 17.4282V17.4376ZM68.7294 23.729C66.2192 23.729 64.1826 25.7637 64.1826 28.2744C64.1826 30.7846 66.2192 32.8212 68.7294 32.8212C71.2397 32.8212 73.2763 30.7846 73.2763 28.2744C73.2763 25.7641 71.2397 23.7275 68.7294 23.7275V23.729ZM48.5034 29.0416C37.7576 29.0416 29.0451 37.7542 29.0451 48.5004C29.0451 59.2465 37.7576 67.9549 48.5034 67.9549C59.2496 67.9549 67.9591 59.2465 67.9591 48.5004C67.9591 37.7546 59.2488 29.0416 48.5027 29.0416H48.5034ZM48.5034 35.8699C55.4787 35.8699 61.1339 41.5243 61.1339 48.5004C61.1339 55.4757 55.4787 61.1308 48.5034 61.1308C41.5277 61.1308 35.8733 55.4757 35.8733 48.5004C35.8733 41.5243 41.5277 35.8699 48.5034 35.8699Z" fill="white"/>
</g>
<defs>
<radialGradient id="paint0_radial_49_33" cx="0" cy="0" r="1" gradientUnits="userSpaceOnUse" gradientTransform="translate(25.7656 104.471) rotate(-90) scale(96.1342 89.4124)">
<stop stop-color="#FFDD55"/>
<stop offset="0.1" stop-color="#FFDD55"/>
<stop offset="0.5" stop-color="#FF543E"/>
<stop offset="1" stop-color="#C837AB"/>
</radialGradient>
<radialGradient id="paint1_radial_49_33" cx="0" cy="0" r="1" gradientUnits="userSpaceOnUse" gradientTransform="translate(-16.2479 6.98741) rotate(78.681) scale(42.9725 177.134)">
<stop stop-color="#3771C8"/>
<stop offset="0.128" stop-color="#3771C8"/>
<stop offset="1" stop-color="#6600FF" stop-opacity="0"/>
</radialGradient>
<clipPath id="clip0_49_33">
<rect width="97" height="97" fill="white"/>
</clipPath>
</defs>
</svg>
