<svg width="28" height="28" viewBox="0 0 28 28" fill="none" xmlns="http://www.w3.org/2000/svg">
<path d="M3.5 10.5665V19.25C3.5 20.1783 3.86875 21.0685 4.52513 21.7249C5.1815 22.3813 6.07174 22.75 7 22.75H21C21.9283 22.75 22.8185 22.3813 23.4749 21.7249C24.1313 21.0685 24.5 20.1783 24.5 19.25V8.75C24.5 7.82174 24.1313 6.9315 23.4749 6.27513C22.8185 5.61875 21.9283 5.25 21 5.25H7C6.07174 5.25 5.1815 5.61875 4.52513 6.27513C3.86875 6.9315 3.5 7.82174 3.5 8.75V10.5665ZM7 7H21C21.4641 7 21.9092 7.18437 22.2374 7.51256C22.5656 7.84075 22.75 8.28587 22.75 8.75V10.045L14 14.756L5.25 10.045V8.75C5.25 8.28587 5.43437 7.84075 5.76256 7.51256C6.09075 7.18437 6.53587 7 7 7ZM5.25 12.033L13.5852 16.52C13.7127 16.5886 13.8552 16.6245 14 16.6245C14.1448 16.6245 14.2873 16.5886 14.4148 16.52L22.75 12.033V19.25C22.75 19.7141 22.5656 20.1592 22.2374 20.4874C21.9092 20.8156 21.4641 21 21 21H7C6.53587 21 6.09075 20.8156 5.76256 20.4874C5.43437 20.1592 5.25 19.7141 5.25 19.25V12.033Z" fill="#5F6368"/>
</svg>
