<svg width="17" height="17" viewBox="0 0 17 17" fill="none" xmlns="http://www.w3.org/2000/svg">
<g clip-path="url(#clip0_17_947)">
<path d="M5.88768 11.1198C8.78056 11.1198 11.1257 8.7747 11.1257 5.88182C11.1257 2.98894 8.78056 0.643799 5.88768 0.643799C2.9948 0.643799 0.649658 2.98894 0.649658 5.88182C0.649658 8.7747 2.9948 11.1198 5.88768 11.1198Z" stroke="black" stroke-width="0.820299" stroke-miterlimit="10"/>
<path d="M5.87962 11.1164C2.98693 11.1164 0.641602 8.77138 0.641602 5.87842" stroke="#39B54A" stroke-width="1.38602" stroke-miterlimit="10"/>
<path d="M0.641602 5.87974C0.641602 2.98679 2.98693 0.641724 5.87962 0.641724" stroke="#FBB03B" stroke-width="1.38602" stroke-miterlimit="10"/>
<path d="M5.87866 0.641724C8.77162 0.641724 11.1167 2.98679 11.1167 5.87974" stroke="#ED1C24" stroke-width="1.38602" stroke-miterlimit="10"/>
<path d="M11.1167 5.87842C11.1167 8.77138 8.77162 11.1164 5.87866 11.1164" stroke="#0071BC" stroke-width="1.38602" stroke-miterlimit="10"/>
<path d="M9.55908 9.60553L16.4816 15.8733" stroke="#0071BC" stroke-width="1.66888" stroke-miterlimit="10"/>
</g>
<defs>
<clipPath id="clip0_17_947">
<rect width="17" height="16.4461" fill="white"/>
</clipPath>
</defs>
</svg>
