<svg width="25" height="25" viewBox="0 0 25 25" fill="none" xmlns="http://www.w3.org/2000/svg">
<path d="M15.9897 5.78127C15.1982 5.78113 14.4382 6.09166 13.8733 6.64607C13.3083 7.20048 12.9836 7.95446 12.9688 8.74585L12.9397 10.3865C12.9381 10.4747 12.9179 10.5615 12.8804 10.6413C12.8429 10.7211 12.7889 10.7921 12.722 10.8495C12.6551 10.907 12.5768 10.9497 12.4922 10.9747C12.4077 10.9997 12.3187 11.0066 12.2313 10.9948L10.6043 10.7729C8.46572 10.4813 6.41572 9.49689 4.44801 7.85835C3.82614 11.3063 5.04176 13.6948 7.97197 15.5375L9.79176 16.6813C9.87808 16.7356 9.9498 16.8101 10.0007 16.8985C10.0515 16.9869 10.08 17.0864 10.0836 17.1883C10.0872 17.2902 10.0658 17.3914 10.0213 17.4832C9.97678 17.5749 9.9105 17.6544 9.82822 17.7146L8.16989 18.9271C9.15635 18.9896 10.0928 18.9459 10.8699 18.7917C15.7845 17.8104 19.0522 14.1125 19.0522 8.01252C19.0522 7.5146 17.997 5.78127 15.9897 5.78127ZM10.8855 8.70835C10.9037 7.70424 11.2177 6.7278 11.7882 5.90129C12.3587 5.07478 13.1603 4.43493 14.0927 4.06186C15.0251 3.68878 16.0469 3.59906 17.03 3.80392C18.0132 4.00878 18.9141 4.49913 19.6199 5.21356C20.3605 5.20835 20.9907 5.39585 22.3991 4.54064C22.0511 6.24898 21.8782 6.99168 21.1355 8.01148C21.1355 15.9708 16.2428 19.8427 11.2772 20.8333C7.87406 21.5125 2.92301 20.3969 1.50635 18.9146C2.22822 18.8594 5.16572 18.5438 6.86364 17.3C5.42614 16.3521 -0.290527 12.9875 3.46676 3.94377C5.23031 6.00314 7.01885 7.40418 8.83135 8.14898C10.0366 8.64377 10.3334 8.63335 10.8866 8.70939L10.8855 8.70835Z" fill="#5F6368"/>
</svg>
