<svg width="106" height="106" viewBox="0 0 106 106" fill="none" xmlns="http://www.w3.org/2000/svg">
<path d="M92.2202 13.6872C88.9827 10.4498 85.0873 8.83331 80.5293 8.83331H25.3783C20.8203 8.83331 16.9248 10.4498 13.6874 13.6872C10.45 16.9246 8.8335 20.8201 8.8335 25.3781V80.5291C8.8335 85.0871 10.45 88.9826 13.6874 92.22C16.9248 95.4574 20.8203 97.0739 25.3783 97.0739H38.2485C39.0877 97.0739 39.7192 97.043 40.1432 96.9856C40.6366 96.8867 41.0818 96.6236 41.4064 96.2392C41.826 95.7975 42.038 95.1571 42.038 94.3179L42.0071 90.4091C41.9894 87.9181 41.9806 85.9483 41.9806 84.4908L40.6556 84.7205C39.8164 84.8751 38.7564 84.9413 37.4712 84.9237C36.1315 84.8989 34.7962 84.7645 33.4785 84.5217C32.0758 84.2627 30.7553 83.6722 29.6272 82.7992C28.4457 81.9054 27.5645 80.673 27.1008 79.2659L26.5267 77.9409C26.0427 76.8957 25.4347 75.9125 24.7158 75.0127C23.8943 73.9394 23.0596 73.2151 22.216 72.8308L21.8185 72.5437C21.5413 72.3452 21.2892 72.1139 21.0677 71.8547C20.8561 71.6142 20.6819 71.3432 20.5509 71.0509C20.4361 70.7815 20.5332 70.5607 20.838 70.3884C21.1472 70.2117 21.6992 70.1278 22.5075 70.1278L23.6558 70.3045C24.4199 70.4547 25.3695 70.914 26.4957 71.6781C27.6355 72.4551 28.5876 73.4766 29.2827 74.6682C30.166 76.2361 31.226 77.433 32.4715 78.2589C33.717 79.0804 34.9713 79.4956 36.2345 79.4956C37.4977 79.4956 38.5886 79.3984 39.5117 79.2085C40.4043 79.0239 41.2717 78.7333 42.0954 78.3428C42.4399 75.7812 43.3762 73.8025 44.9088 72.4245C42.923 72.2298 40.9548 71.8843 39.0214 71.391C37.1346 70.8727 35.32 70.1204 33.6198 69.1517C31.841 68.1833 30.2698 66.8747 28.9956 65.3004C27.7722 63.7678 26.7652 61.7582 25.979 59.2717C25.1972 56.7807 24.8042 53.9054 24.8042 50.6503C24.8042 46.0172 26.3147 42.0731 29.3401 38.8136C27.9267 35.3333 28.0592 31.4246 29.742 27.1006C30.855 26.7517 32.5024 27.0123 34.6842 27.8736C36.8661 28.7348 38.4649 29.4724 39.4807 30.0819C40.4966 30.7002 41.3092 31.217 41.9232 31.6366C45.5138 30.6373 49.2245 30.135 52.9516 30.1437C56.7455 30.1437 60.4202 30.6428 63.9844 31.6366L66.1662 30.2586C67.8445 29.2509 69.6147 28.405 71.453 27.7322C73.4847 26.9637 75.0305 26.7561 76.1082 27.1006C77.8307 31.429 77.9808 35.3333 76.5631 38.8181C79.5885 42.0731 81.1034 46.0172 81.1034 50.6547C81.1034 53.9098 80.7103 56.7939 79.9242 59.2981C79.1424 61.8068 78.1266 63.8164 76.8811 65.3313C75.5844 66.8855 74.0067 68.1815 72.2303 69.1517C70.3753 70.1852 68.5733 70.9316 66.8287 71.391C64.8955 71.8859 62.9273 72.2329 60.9413 72.4289C62.9288 74.1514 63.927 76.8677 63.927 80.5821V94.3179C63.927 94.9672 64.0197 95.4927 64.2141 95.8947C64.3034 96.0883 64.4308 96.262 64.5886 96.4054C64.7464 96.5488 64.9315 96.659 65.1327 96.7294C65.5567 96.8796 65.9278 96.9767 66.2546 97.0121C66.5814 97.0562 67.0496 97.0695 67.6591 97.0695H80.5293C85.0873 97.0695 88.9827 95.453 92.2202 92.2156C95.4532 88.9826 97.0741 85.0827 97.0741 80.5247V25.3781C97.0741 20.8201 95.4576 16.9246 92.2202 13.6872Z" fill="black"/>
</svg>
