<svg width="100" height="100" viewBox="0 0 100 100" fill="none" xmlns="http://www.w3.org/2000/svg">
<g clip-path="url(#clip0_49_38)">
<path d="M76.5625 0H23.4375C10.4933 0 0 10.4933 0 23.4375V76.5625C0 89.5067 10.4933 100 23.4375 100H76.5625C89.5067 100 100 89.5067 100 76.5625V23.4375C100 10.4933 89.5067 0 76.5625 0Z" fill="white"/>
<path d="M76.5625 0H23.4375C10.4933 0 0 10.4933 0 23.4375V76.5625C0 89.5067 10.4933 100 23.4375 100H76.5625C89.5067 100 100 89.5067 100 76.5625V23.4375C100 10.4933 89.5067 0 76.5625 0Z" fill="#1D9BF0"/>
<path d="M77.9578 35.7074C78.0008 36.3273 78.0008 36.9472 78.0008 37.573C78.0008 56.6344 63.4898 78.6179 36.9559 78.6179V78.6062C29.1173 78.6176 21.441 76.3726 14.8438 72.1394C15.9836 72.2765 17.1289 72.3449 18.2773 72.3476C24.7741 72.3527 31.0839 70.1736 36.193 66.1605C33.1828 66.1036 30.2657 65.1075 27.8494 63.3114C25.4331 61.5153 23.6385 59.009 22.7164 56.143C24.8776 56.5597 27.1057 56.4747 29.2289 55.8945C22.4992 54.5347 17.6574 48.6219 17.6574 41.7547V41.5719C19.6636 42.6893 21.9089 43.3085 24.2043 43.3773C17.866 39.141 15.9121 30.7086 19.7395 24.1156C23.3611 28.5722 27.8797 32.2172 33.0018 34.8137C38.1238 37.4101 43.7349 38.9001 49.4703 39.1867C48.8985 36.7251 48.9829 34.1566 49.7153 31.7379C50.4476 29.3192 51.8021 27.1352 53.6434 25.4043C59.4535 19.9426 68.5914 20.2226 74.0531 26.0297C77.2836 25.3919 80.3816 24.2076 83.2137 22.5277C82.1367 25.8678 79.8832 28.703 76.8723 30.5058C79.7319 30.1689 82.5245 29.4035 85.1562 28.2351C83.2203 31.1343 80.7827 33.6645 77.9578 35.7074Z" fill="white"/>
</g>
<defs>
<clipPath id="clip0_49_38">
<rect width="100" height="100" fill="white"/>
</clipPath>
</defs>
</svg>
