<svg width="39" height="39" viewBox="0 0 39 39" fill="none" xmlns="http://www.w3.org/2000/svg">
<path d="M13 9.75C13 10.612 12.6576 11.4386 12.0481 12.0481C11.4386 12.6576 10.612 13 9.75 13C8.88805 13 8.0614 12.6576 7.4519 12.0481C6.84241 11.4386 6.5 10.612 6.5 9.75C6.5 8.88805 6.84241 8.0614 7.4519 7.4519C8.0614 6.84241 8.88805 6.5 9.75 6.5C10.612 6.5 11.4386 6.84241 12.0481 7.4519C12.6576 8.0614 13 8.88805 13 9.75ZM13 19.5C13 20.362 12.6576 21.1886 12.0481 21.7981C11.4386 22.4076 10.612 22.75 9.75 22.75C8.88805 22.75 8.0614 22.4076 7.4519 21.7981C6.84241 21.1886 6.5 20.362 6.5 19.5C6.5 18.638 6.84241 17.8114 7.4519 17.2019C8.0614 16.5924 8.88805 16.25 9.75 16.25C10.612 16.25 11.4386 16.5924 12.0481 17.2019C12.6576 17.8114 13 18.638 13 19.5ZM9.75 32.5C10.612 32.5 11.4386 32.1576 12.0481 31.5481C12.6576 30.9386 13 30.112 13 29.25C13 28.388 12.6576 27.5614 12.0481 26.9519C11.4386 26.3424 10.612 26 9.75 26C8.88805 26 8.0614 26.3424 7.4519 26.9519C6.84241 27.5614 6.5 28.388 6.5 29.25C6.5 30.112 6.84241 30.9386 7.4519 31.5481C8.0614 32.1576 8.88805 32.5 9.75 32.5ZM22.75 9.75C22.75 10.612 22.4076 11.4386 21.7981 12.0481C21.1886 12.6576 20.362 13 19.5 13C18.638 13 17.8114 12.6576 17.2019 12.0481C16.5924 11.4386 16.25 10.612 16.25 9.75C16.25 8.88805 16.5924 8.0614 17.2019 7.4519C17.8114 6.84241 18.638 6.5 19.5 6.5C20.362 6.5 21.1886 6.84241 21.7981 7.4519C22.4076 8.0614 22.75 8.88805 22.75 9.75ZM19.5 22.75C20.362 22.75 21.1886 22.4076 21.7981 21.7981C22.4076 21.1886 22.75 20.362 22.75 19.5C22.75 18.638 22.4076 17.8114 21.7981 17.2019C21.1886 16.5924 20.362 16.25 19.5 16.25C18.638 16.25 17.8114 16.5924 17.2019 17.2019C16.5924 17.8114 16.25 18.638 16.25 19.5C16.25 20.362 16.5924 21.1886 17.2019 21.7981C17.8114 22.4076 18.638 22.75 19.5 22.75ZM22.75 29.25C22.75 30.112 22.4076 30.9386 21.7981 31.5481C21.1886 32.1576 20.362 32.5 19.5 32.5C18.638 32.5 17.8114 32.1576 17.2019 31.5481C16.5924 30.9386 16.25 30.112 16.25 29.25C16.25 28.388 16.5924 27.5614 17.2019 26.9519C17.8114 26.3424 18.638 26 19.5 26C20.362 26 21.1886 26.3424 21.7981 26.9519C22.4076 27.5614 22.75 28.388 22.75 29.25ZM29.25 13C30.112 13 30.9386 12.6576 31.5481 12.0481C32.1576 11.4386 32.5 10.612 32.5 9.75C32.5 8.88805 32.1576 8.0614 31.5481 7.4519C30.9386 6.84241 30.112 6.5 29.25 6.5C28.388 6.5 27.5614 6.84241 26.9519 7.4519C26.3424 8.0614 26 8.88805 26 9.75C26 10.612 26.3424 11.4386 26.9519 12.0481C27.5614 12.6576 28.388 13 29.25 13ZM32.5 19.5C32.5 20.362 32.1576 21.1886 31.5481 21.7981C30.9386 22.4076 30.112 22.75 29.25 22.75C28.388 22.75 27.5614 22.4076 26.9519 21.7981C26.3424 21.1886 26 20.362 26 19.5C26 18.638 26.3424 17.8114 26.9519 17.2019C27.5614 16.5924 28.388 16.25 29.25 16.25C30.112 16.25 30.9386 16.5924 31.5481 17.2019C32.1576 17.8114 32.5 18.638 32.5 19.5ZM29.25 32.5C30.112 32.5 30.9386 32.1576 31.5481 31.5481C32.1576 30.9386 32.5 30.112 32.5 29.25C32.5 28.388 32.1576 27.5614 31.5481 26.9519C30.9386 26.3424 30.112 26 29.25 26C28.388 26 27.5614 26.3424 26.9519 26.9519C26.3424 27.5614 26 28.388 26 29.25C26 30.112 26.3424 30.9386 26.9519 31.5481C27.5614 32.1576 28.388 32.5 29.25 32.5Z" fill="black"/>
</svg>
