<svg width="39" height="39" viewBox="0 0 39 39" fill="none" xmlns="http://www.w3.org/2000/svg">
<path d="M32.3372 21.385C32.0767 21.0885 31.933 20.7072 31.933 20.3125C31.933 19.9178 32.0767 19.5366 32.3372 19.24L34.4172 16.9C34.6464 16.6444 34.7887 16.3227 34.8238 15.9811C34.8588 15.6395 34.7847 15.2956 34.6122 14.9988L31.3622 9.37626C31.1914 9.07973 30.9314 8.84469 30.6192 8.70463C30.307 8.56457 29.9585 8.52664 29.6235 8.59626L26.5685 9.21376C26.1797 9.29408 25.775 9.22934 25.4308 9.03176C25.0865 8.83418 24.8265 8.51742 24.6997 8.14126L23.7085 5.16751C23.5994 4.84475 23.3917 4.56442 23.1147 4.36613C22.8377 4.16784 22.5054 4.06163 22.1647 4.06251H15.6647C15.3104 4.04402 14.9597 4.14202 14.6663 4.34155C14.3728 4.54108 14.1528 4.83117 14.0397 5.16751L13.1297 8.14126C13.003 8.51742 12.7429 8.83418 12.3986 9.03176C12.0544 9.22934 11.6497 9.29408 11.261 9.21376L8.12471 8.59626C7.80711 8.55138 7.48332 8.6015 7.19415 8.7403C6.90498 8.87911 6.66335 9.10038 6.49971 9.37626L3.24971 14.9988C3.07284 15.2923 2.99332 15.6343 3.02251 15.9758C3.05169 16.3172 3.18809 16.6407 3.41221 16.9L5.47596 19.24C5.73648 19.5366 5.88015 19.9178 5.88015 20.3125C5.88015 20.7072 5.73648 21.0885 5.47596 21.385L3.41221 23.725C3.18809 23.9843 3.05169 24.3078 3.02251 24.6493C2.99332 24.9907 3.07284 25.3327 3.24971 25.6263L6.49971 31.2488C6.67049 31.5453 6.93053 31.7803 7.24274 31.9204C7.55496 32.0605 7.90342 32.0984 8.23846 32.0288L11.2935 31.4113C11.6822 31.3309 12.0869 31.3957 12.4311 31.5933C12.7754 31.7908 13.0355 32.1076 13.1622 32.4838L14.1535 35.4575C14.2665 35.7939 14.4866 36.084 14.78 36.2835C15.0734 36.483 15.4241 36.581 15.7785 36.5625H22.2785C22.6191 36.5634 22.9515 36.4572 23.2285 36.2589C23.5055 36.0606 23.7132 35.7803 23.8222 35.4575L24.8135 32.4838C24.9402 32.1076 25.2003 31.7908 25.5445 31.5933C25.8888 31.3957 26.2935 31.3309 26.6822 31.4113L29.7372 32.0288C30.0722 32.0984 30.4207 32.0605 30.7329 31.9204C31.0451 31.7803 31.3052 31.5453 31.476 31.2488L34.726 25.6263C34.8985 25.3294 34.9726 24.9855 34.9375 24.6439C34.9025 24.3024 34.7602 23.9807 34.531 23.725L32.3372 21.385ZM29.916 23.5625L31.216 25.025L29.136 28.6325L27.2185 28.2425C26.0481 28.0033 24.8306 28.2021 23.7972 28.8012C22.7637 29.4003 21.9862 30.358 21.6122 31.4925L20.9947 33.3125H16.8347L16.2497 31.46C15.8757 30.3255 15.0982 29.3678 14.0647 28.7687C13.0313 28.1696 11.8138 27.9708 10.6435 28.21L8.72596 28.6L6.61346 25.0088L7.91346 23.5463C8.71288 22.6525 9.15485 21.4954 9.15485 20.2963C9.15485 19.0971 8.71288 17.94 7.91346 17.0463L6.61346 15.5838L8.69346 12.0088L10.611 12.3988C11.7813 12.638 12.9988 12.4392 14.0322 11.8401C15.0657 11.241 15.8432 10.2833 16.2172 9.14876L16.8347 7.31251H20.9947L21.6122 9.16501C21.9862 10.2995 22.7637 11.2572 23.7972 11.8563C24.8306 12.4554 26.0481 12.6542 27.2185 12.415L29.136 12.025L31.216 15.6325L29.916 17.095C29.1255 17.9867 28.689 19.1371 28.689 20.3288C28.689 21.5204 29.1255 22.6708 29.916 23.5625ZM18.9147 13.8125C17.6291 13.8125 16.3724 14.1937 15.3035 14.908C14.2346 15.6222 13.4015 16.6374 12.9095 17.8251C12.4175 19.0128 12.2888 20.3197 12.5396 21.5806C12.7904 22.8415 13.4095 23.9997 14.3185 24.9087C15.2276 25.8177 16.3857 26.4368 17.6466 26.6876C18.9075 26.9384 20.2144 26.8097 21.4021 26.3177C22.5899 25.8258 23.605 24.9926 24.3193 23.9237C25.0335 22.8548 25.4147 21.5981 25.4147 20.3125C25.4147 18.5886 24.7299 16.9353 23.5109 15.7163C22.2919 14.4973 20.6386 13.8125 18.9147 13.8125Z" fill="black"/>
</svg>
