<svg width="12" height="12" viewBox="0 0 12 12" fill="none" xmlns="http://www.w3.org/2000/svg">
<path d="M10.479 7.66253C10.581 7.41953 10.2895 7.21253 10.045 7.32053C9.55628 7.53505 9.02823 7.6454 8.4945 7.64453C6.402 7.64453 4.706 5.98253 4.706 3.93203C4.70523 3.2397 4.90193 2.56151 5.273 1.97703C5.415 1.75303 5.2445 1.44303 4.9845 1.50903C2.98 2.02053 1.5 3.80653 1.5 5.93103C1.5 8.45453 3.5875 10.5 6.163 10.5C8.113 10.5 9.783 9.32753 10.479 7.66253Z" fill="black"/>
<path d="M7.80526 1.55152C7.54026 1.37452 7.22426 1.69052 7.40076 1.95552L7.71576 2.42802C7.84354 2.6196 7.91174 2.84473 7.91174 3.07502C7.91174 3.30531 7.84354 3.53044 7.71576 3.72202L7.40076 4.19452C7.22426 4.45952 7.54076 4.77552 7.80576 4.59852L8.27776 4.28352C8.46934 4.15574 8.69447 4.08754 8.92476 4.08754C9.15505 4.08754 9.38018 4.15574 9.57176 4.28352L10.0443 4.59852C10.3093 4.77552 10.6253 4.45952 10.4483 4.19452L10.1333 3.72202C10.0055 3.53044 9.93728 3.30531 9.93728 3.07502C9.93728 2.84473 10.0055 2.6196 10.1333 2.42802L10.4483 1.95552C10.6253 1.69052 10.3093 1.37452 10.0438 1.55152L9.57176 1.86652C9.38018 1.9943 9.15505 2.06249 8.92476 2.06249C8.69447 2.06249 8.46934 1.9943 8.27776 1.86652L7.80526 1.55152Z" fill="black"/>
</svg>
