<svg width="14" height="14" viewBox="0 0 14 14" fill="none" xmlns="http://www.w3.org/2000/svg">
<g clip-path="url(#clip0_98_779)">
<path d="M4.09152 4.58828C3.02949 5.95328 3.04808 8.37813 4.40543 9.58016C5.94652 10.9441 8.11543 10.9298 9.47933 9.67531C11.1145 8.17031 11.0204 5.66563 9.57449 4.24703C8.1209 2.82078 5.52324 2.74641 4.09152 4.58828Z" fill="#FCC11A"/>
<path d="M5.7964 4.12015C5.3764 3.93421 4.91702 4.44062 4.71687 4.78624C4.51671 5.13296 4.33077 5.81218 4.75733 5.98609C5.1839 6.1589 5.49015 5.86577 5.79749 5.35937C6.10265 4.85296 6.27655 4.33343 5.7964 4.12015Z" fill="#FEE269"/>
<path d="M6.89071 2.21702C6.78899 2.40733 6.8229 2.55389 7.02524 2.60202C7.22758 2.65014 8.48649 2.85468 8.59258 2.86124C8.7468 2.87108 8.80368 2.75514 8.78508 2.62061C8.7654 2.48608 8.45805 0.601551 8.42962 0.428738C8.40118 0.255926 8.21852 0.0831131 8.04462 0.313894C7.87071 0.544676 6.96727 2.07374 6.89071 2.21702ZM10.1501 3.52514C9.95212 3.58639 9.95759 3.7078 10.0637 3.86202C10.1698 4.01624 10.9004 5.13077 10.9671 5.20843C11.0349 5.28499 11.1498 5.30468 11.246 5.18874C11.3423 5.07389 12.5432 3.38952 12.6307 3.28452C12.7751 3.11171 12.6887 2.92905 12.4677 2.98593C12.2993 3.03077 10.2748 3.48686 10.1501 3.52514ZM11.6595 6.76593C11.5173 6.68499 11.3324 6.70796 11.2843 6.89061C11.2362 7.07327 11.0251 8.39999 11.0054 8.51593C10.9857 8.63186 11.0732 8.74671 11.2165 8.71827C11.3598 8.68983 13.3438 8.39561 13.4762 8.3628C13.707 8.30483 13.7835 8.07405 13.544 7.90124C13.3887 7.78858 11.794 6.84249 11.6595 6.76593ZM10.0724 9.90936C10.2256 9.82733 10.3612 9.88968 10.3995 10.0636C10.4377 10.2364 10.861 12.0061 10.9288 12.3331C10.9627 12.4972 10.7746 12.6317 10.6215 12.5355C10.4673 12.4392 8.79602 11.2744 8.68884 11.1792C8.53462 11.0447 8.6418 10.9047 8.71727 10.8336C8.8704 10.6881 9.92805 9.98702 10.0724 9.90936ZM5.41852 10.8806C5.22493 10.862 5.16805 11.0348 5.19758 11.188C5.22602 11.3422 5.51477 13.2923 5.53446 13.4378C5.5629 13.6489 5.78493 13.7364 5.92821 13.5242C6.07149 13.312 7.06024 11.7305 7.14008 11.5817C7.28446 11.3126 7.17837 11.2547 7.03399 11.188C6.89071 11.1212 5.62087 10.9003 5.41852 10.8806ZM2.65024 8.64061C2.78477 8.41968 2.95758 8.47764 3.08337 8.68874C3.16868 8.83311 3.89055 9.80436 3.95837 9.90936C4.02618 10.0155 4.05462 10.2167 3.84352 10.2648C3.63024 10.3141 1.90977 10.7658 1.64071 10.8139C1.37165 10.862 1.21743 10.6509 1.39024 10.4201C1.49087 10.2845 2.57368 8.76639 2.65024 8.64061ZM2.28493 6.96718C2.53102 7.07655 2.64696 7.03718 2.69837 6.86108C2.76618 6.6303 2.96743 5.57264 2.97727 5.33202C2.98383 5.17561 2.9193 5.02468 2.67868 5.06296C2.43805 5.10124 0.707741 5.34296 0.486804 5.41952C0.229772 5.50921 0.248366 5.79139 0.418991 5.88108C0.621335 5.98718 2.11102 6.89061 2.28493 6.96718ZM5.27524 2.92905C5.41415 2.81858 5.37149 2.65999 5.2468 2.57358C5.12212 2.48718 3.57774 1.37046 3.38196 1.21733C3.20915 1.0828 2.99696 1.13093 3.05493 1.43827C3.09649 1.65921 3.58868 3.59296 3.62258 3.72639C3.66087 3.88061 3.7768 3.95718 3.91133 3.86093C4.04368 3.76577 5.13087 3.04499 5.27524 2.92905Z" fill="#FFA722"/>
</g>
<defs>
<clipPath id="clip0_98_779">
<rect width="14" height="14" fill="white"/>
</clipPath>
</defs>
</svg>
